<svg xmlns="http://www.w3.org/2000/svg" width="28" height="28" viewBox="0 0 28 28" fill="none">
  <path d="M11.6589 5.83546C11.3886 5.83492 11.1266 5.92965 10.9185 6.1032C10.8014 6.20092 10.7045 6.32094 10.6336 6.45638C10.5626 6.59181 10.5189 6.74001 10.5049 6.89248C10.4909 7.04495 10.507 7.19869 10.5521 7.3449C10.5973 7.49112 10.6707 7.62693 10.7681 7.74456L15.9509 13.9841L10.9532 20.2352C10.8571 20.3543 10.7854 20.4913 10.7421 20.6383C10.6988 20.7854 10.6848 20.9396 10.7009 21.0922C10.717 21.2447 10.7629 21.3925 10.836 21.5271C10.9091 21.6617 11.0079 21.7805 11.1267 21.8766C11.2464 21.9825 11.3866 22.0625 11.5385 22.1113C11.6903 22.1602 11.8506 22.177 12.0092 22.1606C12.1678 22.1442 12.3213 22.095 12.4601 22.0161C12.5989 21.9371 12.72 21.8302 12.8158 21.7019L18.4035 14.7174C18.5736 14.5091 18.6667 14.2479 18.6667 13.9782C18.6667 13.7086 18.5736 13.4473 18.4035 13.239L12.6191 6.25453C12.5031 6.11365 12.3556 6.00229 12.1888 5.92948C12.022 5.85667 11.8404 5.82446 11.6589 5.83546Z" fill="white"/>
</svg>