<svg width="28" height="28" viewBox="0 0 28 28" fill="none" xmlns="http://www.w3.org/2000/svg">
<path d="M17.5077 22.1645C17.778 22.1651 18.04 22.0703 18.2481 21.8968C18.3653 21.7991 18.4621 21.6791 18.5331 21.5436C18.604 21.4082 18.6478 21.26 18.6617 21.1075C18.6757 20.9551 18.6597 20.8013 18.6145 20.6551C18.5693 20.5089 18.4959 20.3731 18.3985 20.2554L13.2157 14.0159L18.2134 7.76481C18.3095 7.64574 18.3813 7.50873 18.4246 7.36166C18.4679 7.21459 18.4819 7.06036 18.4657 6.90783C18.4496 6.7553 18.4037 6.60748 18.3306 6.47287C18.2575 6.33826 18.1587 6.21951 18.0399 6.12345C17.9202 6.01747 17.78 5.93754 17.6282 5.88866C17.4763 5.83978 17.316 5.82301 17.1574 5.83941C16.9988 5.8558 16.8453 5.90501 16.7065 5.98394C16.5677 6.06286 16.4466 6.16981 16.3508 6.29806L10.7631 13.2826C10.593 13.4909 10.5 13.7521 10.5 14.0218C10.5 14.2914 10.593 14.5527 10.7631 14.761L16.5475 21.7455C16.6636 21.8863 16.811 21.9977 16.9778 22.0705C17.1447 22.1433 17.3262 22.1755 17.5077 22.1645Z" fill="#3C4563"/>
</svg>
